<?xml version="1.0" encoding="utf-8"?>
<!-- Generator: Adobe Illustrator 27.1.1, SVG Export Plug-In . SVG Version: 6.00 Build 0)  -->
<svg version="1.1" id="Layer_1" xmlns="http://www.w3.org/2000/svg" xmlns:xlink="http://www.w3.org/1999/xlink" x="0px" y="0px"
	 viewBox="0 0 51.42 49.21" style="enable-background:new 0 0 51.42 49.21;" xml:space="preserve">
<style type="text/css">
	.st0{fill:url(#SVGID_1_);}
	.st1{fill:#E2866A;}
	.st2{fill:#F7C19C;}
</style>
<g>
	<linearGradient id="SVGID_1_" gradientUnits="userSpaceOnUse" x1="33.1288" y1="11.3999" x2="26.3524" y2="28.5293">
		<stop  offset="0" style="stop-color:#B78195"/>
		<stop  offset="0.8801" style="stop-color:#8A4C72"/>
	</linearGradient>
	<path class="st0" d="M26.84,13.87c5.55-2.61,12.33-6.78,17.04,1.51S41.24,27.6,41.24,27.6s0.56,9.61-2.26,7.92
		s-5.46-4.52-7.34-1.69c-1.88,2.82-5.84-3.74-6.02,1.89c-0.19,5.63-0.65,2.46-4,0c-3.34-2.46-3.14-2.84-5.31,1.49
		s-8.57,7.44-6.31,1.65s2.64-10.31,2.07-15.39S21.28,16.48,26.84,13.87z"/>
	<g>
		<path class="st1" d="M29.11,12.89c-4.38-6.02-12.1-6.36-17.37-2.97S7.23,21.02,8.92,24.22s7.15,5.65,15.44,0
			S31.16,15.71,29.11,12.89z"/>
		<circle class="st2" cx="18.96" cy="16.53" r="2.66"/>
	</g>
</g>
</svg>
